<?xml version="1.0" encoding="utf-8"?>
<!-- Generator: Adobe Illustrator 21.0.1, SVG Export Plug-In . SVG Version: 6.00 Build 0)  -->
<svg version="1.1" id="Layer_1" xmlns="http://www.w3.org/2000/svg" xmlns:xlink="http://www.w3.org/1999/xlink" x="0px" y="0px"
	 viewBox="0 0 95 263" style="enable-background:new 0 0 95 263;" xml:space="preserve">
<style type="text/css">
	.st0{fill:#C7A496;}
	.st1{fill:#FFFFFF;}
	.st2{fill:#B8B8B8;}
	.st3{fill:#24126A;}
	.st4{fill:#231F20;}
	.st5{fill:#F0C6B4;}
	.st6{fill:#453C9E;}
	.st7{fill:url(#SVGID_1_);}
	.st8{fill:url(#SVGID_2_);}
	.st9{fill:#6E4826;}
	.st10{fill:#915E33;}
	.st11{fill:url(#SVGID_3_);}
	.st12{fill:#414042;}
	.st13{fill:#8C8C8C;}
</style>
<g>
	<path class="st0" d="M23,46.3c0.7,5-1.2,9.5-1.2,9.5l1.2,6.8l5.7,5.7l8.7,3l6.9-2.4v-8.7l-5-7.1L31,47.4C31,47.4,22.1,44.9,23,46.3
		z"/>
	<path class="st1" d="M21.9,55.8c0,0,12.9,11.2,15.5,10.1c2.6-1.1,0.7-9.4,0.7-9.4l5.8,0.4L50,73.4l-1.6,8.8l-10.2,0.5l-9.3-8.3
		l-7.1-11.1V55.8z"/>
	<path class="st2" d="M89.4,94.6c0.3,0.1,3.2,3.2,0,6.7c-2.9,3.1-5.5,0.5-6,0C80.6,96.6,85.4,92.8,89.4,94.6z"/>
	<path class="st1" d="M84.9,90.9c0,0,4,3.4,4.5,3.7c-6.3,2.1-6,7-6,7l-4.6-4.3l1.6-5.4L84.9,90.9z"/>
	<path class="st3" d="M42.9,52.4C51,48,57.1,61.1,62,66c4.9,4.9,18.3,18.3,18.3,18.3l7.3,8.6c0,0-8-1.1-7.3,7.7
		c-0.9-1-8.9-10-8.9-10L54.9,76.5L42.6,55.7C42.6,55.7,41.9,54,42.9,52.4z"/>
	<path class="st4" d="M35.3,230.6c-0.5,1.8-0.8,3.4-0.2,4.6c1.3,2.3,8.3,4.2,8.3,4.2s12.3,9.9,19.5,8.5c1-0.2,0.9-4.2-1-6
		c-1-1-2.9-2.5-4.9-4L35.3,230.6z"/>
	<path class="st5" d="M57.1,237.9c1.2,0.9-8.5-6.4-9-8.4c-2.2-15.3,8-36.9,9.2-41.4c1.2-4.5,0.7-16.8,0.7-16.8L42,180l1.4,7.6
		c0,0-3.9,5.5-5.5,9.6c-1.6,4.1-0.1,23-0.9,27.3c-0.4,2.1-1.2,4.2-1.7,6C35.3,230.6,56.8,247.1,57.1,237.9z"/>
	<path class="st4" d="M9.7,231.4c0,1.8,0,4.8,0,4.8s0.8,10,4.4,14.3c3.6,4.3,9.5,4.3,10.8,2.7c2.8-3.5-4.4-16.8-5.7-20.2L9.7,231.4z
		"/>
	<path class="st5" d="M19.2,233c-2.4-6.7-0.6-35.2,0.9-39.8c1.5-4.6,4.6-7.2,4.8-11.5c0.1-4.3-12.5-11.5-14.2-4.7
		c-1.7,6.8-6.1,12.8-6.1,17.3c-0.1,9.2,6.6,19.8,5.1,37.1c0,0,3.3,17.5,10.3,14.5C23.2,244.5,19.2,233,19.2,233z"/>
	<path class="st6" d="M15.7,133.1c-3.4,8.5-1.1,23.4-5.1,41.4c-0.6,2.6,0,7.4,10.9,9.2c20.3,3.3,36.5-9,36.5-9s6.4-22.1,2.7-45.5
		c-2.3-3.3-6-8.7-6-8.7S19.2,124.6,15.7,133.1z"/>
	<linearGradient id="SVGID_1_" gradientUnits="userSpaceOnUse" x1="15.5186" y1="135.4885" x2="60.7865" y2="135.4885">
		<stop  offset="0" style="stop-color:#5761D7"/>
		<stop  offset="7.257640e-02" style="stop-color:#5472D8"/>
		<stop  offset="0.2791" style="stop-color:#4E9CDB"/>
		<stop  offset="0.4801" style="stop-color:#49BDDD"/>
		<stop  offset="0.6715" style="stop-color:#45D5DF"/>
		<stop  offset="0.8493" style="stop-color:#43E3E0"/>
		<stop  offset="1" style="stop-color:#42E8E0"/>
	</linearGradient>
	<path class="st7" d="M15.7,133.1c0,0-3.3,14,16.3,12.9c7.8-0.5,16.1-4.3,17.8-5.7c1.7-1.4,2.2-9.2,2.2-9.2s1.4,2.1,2.3,6.1
		c5.4-3.7,6.5-7.9,6.5-7.9l-9.2-4.2L15.7,133.1z"/>
	<path class="st6" d="M21.9,55.8c-0.7,1.1-5.6,8.4-11.2,13.9C10.3,73,21.5,111.1,21,117c-0.5,5.9-5.2,11.9-5.2,16.1
		c0,2.8,3.2,11.5,14.8,10.9c5.5-0.3,12.1-3.1,17.8-6.3c2.9-2,2-8.4,3.2-9.1c0,0,2.2,3.7,2.9,5.8c1.4,0.1,5.7-4.4,6.4-5.1
		c-1.2-16.4-3.1-18.1-3.9-24c-0.9-5.9-0.3-12.8-0.3-12.8s5.9-3.8,5.3-9.7c-0.6-6-19.2-29.6-19.2-29.6l-2.4,1.8
		c0,0,7.4,20.2,3.8,24.1C39.5,77.9,27.4,69,21.9,55.8z"/>
	<linearGradient id="SVGID_2_" gradientUnits="userSpaceOnUse" x1="27.9231" y1="96.222" x2="41.7229" y2="96.222">
		<stop  offset="0" style="stop-color:#5761D7"/>
		<stop  offset="7.257640e-02" style="stop-color:#5472D8"/>
		<stop  offset="0.2791" style="stop-color:#4E9CDB"/>
		<stop  offset="0.4801" style="stop-color:#49BDDD"/>
		<stop  offset="0.6715" style="stop-color:#45D5DF"/>
		<stop  offset="0.8493" style="stop-color:#43E3E0"/>
		<stop  offset="1" style="stop-color:#42E8E0"/>
	</linearGradient>
	<path class="st8" d="M27.9,91.9c2.4,14.1,13.8,6.6,13.8,6.6S31.5,102.3,27.9,91.9z"/>
	<path d="M37.2,101.3c0,0,3.4,0.9,5,5.9c1.6,5-1.2,7.3-1.2,7.3s-6.5,3.3-8.4-1.9C30.2,106.2,37.2,101.3,37.2,101.3z"/>
	<path class="st5" d="M47.7,32.1c2.3,4.6,1.4,8.7,1.4,10.8c0,2.1-3,14-3.6,15.3c-0.6,1.4-4.4,2.9-7.3,2c-2.9-0.9-8.6-3.3-9.6-5.6
		c-1.1-2.3-1-4.3-1-4.3s-3.5-1.6-4.6-4.1c-2-2.2-2.6-2.3-2.6-2.3l-0.8-6.4l3.8-6.6l5.3-4.5l7.6-1.9l5.9,1.8
		C42.3,26.4,46.9,31.1,47.7,32.1z"/>
	<path class="st9" d="M21.9,18.5c0,0-13.2-2.6-15.7,15.3c-0.7,5.1,4.3,14.2,5.3,16.1c4.5,0.1,8.4-7,8.4-7L21.9,18.5z"/>
	<ellipse class="st3" cx="21.9" cy="23.6" rx="5.2" ry="5.1"/>
	<path class="st10" d="M23,46.3c0,0-1.5-4.7,1.2-4.1c2.7,0.6,2,4.1,5.3,4.1c1.4,0,5.4-1.2,5.8-7.8c8.1-0.3,14.1-5.3,12.1-8.2
		c-15.2-22.9-28.3-3.8-28.3-3.8s-6.2,9.2-1.9,16.7C18.9,45.8,23,46.3,23,46.3z"/>
	<path class="st2" d="M41.9,99.6c6.3,2.3,2.8,8.7,2.8,8.7l-4.5-0.6C40.2,107.7,41.2,99.6,41.9,99.6z"/>
	<path class="st5" d="M40.5,101.3c0,0,9.4-4.9,15.7-4c6.7,1.2,8,3.2,7.8,4c-0.1,0.4-6.5-1.4-6.9-0.8c-0.4,2-1.4,5.2-5.5,5.7
		c-2.3,0.2-6.9,1.1-6.9,1.1l-3,1.5l-2.5-3L40.5,101.3z"/>
	<path class="st1" d="M34.5,104.6c0,0,6.2-4.2,7.4-5c-1.9,7.3,2.8,8.7,2.8,8.7l-8,6.5L34.5,104.6z"/>
	<path class="st3" d="M14,68.3C2.4,70.6,8.6,89.5,8.6,89.5s1.2,34.7,7.2,36.6c5.9,1.9,25.2-11.7,25.2-11.7s-8.7-4.1-3.8-13.2
		c-1.8,1-13,7-13,7l-2.4-29.5C21.9,78.8,21.3,68.7,14,68.3z"/>
	<linearGradient id="SVGID_3_" gradientUnits="userSpaceOnUse" x1="15.7299" y1="112.6327" x2="24.2289" y2="112.6327">
		<stop  offset="0" style="stop-color:#5761D7"/>
		<stop  offset="7.257640e-02" style="stop-color:#5472D8"/>
		<stop  offset="0.2791" style="stop-color:#4E9CDB"/>
		<stop  offset="0.4801" style="stop-color:#49BDDD"/>
		<stop  offset="0.6715" style="stop-color:#45D5DF"/>
		<stop  offset="0.8493" style="stop-color:#43E3E0"/>
		<stop  offset="1" style="stop-color:#42E8E0"/>
	</linearGradient>
	<path class="st11" d="M15.7,117c4-5,8.5-8.7,8.5-8.7S15.3,111.8,15.7,117z"/>
	<g>
		<path class="st12" d="M88.3,85.9l-1.5-0.9c-0.1,0-0.1-0.1-0.2-0.1v0l0,0c-0.4-0.2-0.8-0.1-1.4,0.2L72,92.8
			c-1.1,0.7-2.1,2.3-2.1,3.6v22.2c0,0.7,0.3,1.2,0.8,1.4l1.6,0.9l0.8-1.8l12.1-7c1.1-0.7,2.1-2.3,2.1-3.6V88L88.3,85.9z"/>
		<path class="st13" d="M89,109.5c0,1.3-0.9,2.9-2.1,3.6l-13.3,7.7c-1.1,0.7-2.1,0.1-2.1-1.2V97.4c0-1.3,0.9-2.9,2.1-3.6L87,86.1
			c1.1-0.7,2.1-0.1,2.1,1.2V109.5z"/>
		<path class="st1" d="M84.4,97.3c0,1.9-1.3,4.1-2.9,5.1c-1.6,0.9-2.9,0.2-2.9-1.7c0-1.9,1.3-4.1,2.9-5.1
			C83.1,94.7,84.4,95.4,84.4,97.3z"/>
	</g>
</g>
</svg>
